# xmcd
#
# Track frame offsets:
#	150
#	15224
#	38048
#	55066
#	92082
#	130064
#	155153
#
# Disc length: 2213 seconds
# Revision: 0
# Processed by: cddbd v1.5.2PL0 Copyright (c) Steve Scherf et al.
# Submitted via: dBpowerAMP V12.0
#
DISCID=4b08a307
DTITLE=Lucrezia - Lookin' 4 Love
DYEAR=2001
DGENRE=House
TTITLE0=Lookin' 4 Love [Roy Malone Ocean Radio Mix]
TTITLE1=Lookin' 4 Love [Roy Malone Ocean Extended Mix]
TTITLE2=Lookin' 4 Love [Kamasutra Vocal Radio Mix]
TTITLE3=Lookin' 4 Love [Kamasutra Extended Vocal Mix]
TTITLE4=Lookin' 4 Love [Kamasutra Dub Mix]
TTITLE5=Lookin' 4 Love [Z.E.N. Euro Extended Mix]
TTITLE6=Lookin' 4 Love [Unplugged Version]
EXTD=
EXTT0=
EXTT1=
EXTT2=
EXTT3=
EXTT4=
EXTT5=
EXTT6=
PLAYORDER=
